<svg width="77" height="75" viewBox="0 0 77 75" fill="none" xmlns="http://www.w3.org/2000/svg">
<path d="M37.6144 0.955009C37.1131 1.176 34.887 3.29889 28.1495 10.0518L19.3477 18.8383L21.0725 19.3988L22.7973 19.944L23.682 19.0739L24.5667 18.1892L26.3362 19.9432L28.1056 21.7127L39.9736 25.605L51.8417 29.4974L55.2327 26.1363L58.6238 22.7599L66.0397 30.1757L73.4402 37.577L70.0491 40.9681L66.6434 44.3584L65.6116 47.5131C65.051 49.2525 64.609 50.727 64.6237 50.801C64.6529 50.8749 67.13 48.4571 70.1376 45.4348C75.2096 40.3482 75.637 39.877 75.9319 39.0808C76.3007 38.0636 76.33 37.2528 76.0058 36.1617C75.7848 35.3802 75.3713 34.9528 58.8009 18.3524C45.0741 4.61174 41.6692 1.27918 41.0794 0.999672C40.1061 0.54229 38.5876 0.513027 37.6144 0.955009ZM39.4577 8.4448C40.2686 8.82826 46.5194 15.1238 46.829 15.8607C47.0946 16.5244 47.1092 17.2759 46.8728 18.1014C46.6519 18.8683 43.9245 21.7134 42.9951 22.1708C42.2582 22.5242 41.0786 22.5543 40.297 22.2447C39.5602 21.9352 33.4117 15.8314 33.029 15.0206C32.6902 14.2983 32.6602 13.0748 32.9697 12.3372C33.2646 11.6441 36.0212 8.84289 36.7882 8.45943C37.5558 8.0906 38.6762 8.07597 39.4577 8.4448Z" fill="#FFCC00"/>
<path d="M16.7535 20.416C15.9427 20.6078 14.8662 21.3446 14.3796 22.0376C14.0993 22.4357 13.1853 25.0599 11.4897 30.3082C10.1338 34.5394 9.01343 38.0929 9.01343 38.1961C9.01343 38.3432 10.163 38.3878 14.984 38.3878C18.2719 38.3878 20.9546 38.3586 20.9546 38.3293C20.9546 38.3 20.1145 37.9897 19.0819 37.6509C17.3718 37.0757 17.1362 36.9579 16.5017 36.3242C15.9711 35.7637 15.7794 35.4395 15.647 34.8058C15.4699 34.0096 15.4699 33.9211 16.1336 31.8274C16.9152 29.3064 17.2986 28.6727 18.3451 28.1414C19.5247 27.5516 19.952 27.6255 24.4781 29.1147C28.9603 30.6039 29.4762 30.8249 29.9474 31.4147C30.8907 32.609 30.9061 33.5522 30.0213 36.2649C29.6525 37.3853 29.3576 38.3139 29.3576 38.3439C29.3576 38.3732 32.041 38.3878 35.3135 38.3878H41.2841L42.3306 35.13C43.32 32.0484 43.3939 31.8859 43.7035 31.9891C44.7645 32.3133 63.3261 38.4025 63.3554 38.4317C63.3847 38.4463 62.3968 41.6018 61.1586 45.4202C59.0057 52.1431 58.9179 52.3787 58.593 52.3056L58.2542 52.217V57.4353C58.2542 60.3105 58.2103 63.1995 58.1656 63.834C58.0917 64.6448 58.1209 64.9544 58.2249 64.8512C58.3134 64.7626 60.1561 59.1901 62.3382 52.4673C66.2452 40.3783 66.2891 40.2158 66.2891 38.9776C66.2891 37.8866 66.2452 37.6363 65.891 37.0465C65.3751 36.1618 64.505 35.3956 63.6942 35.0861C63.34 34.9536 53.0058 31.5625 40.739 27.5524C26.2907 22.82 18.2411 20.2543 17.8877 20.2697C17.5935 20.2836 17.0776 20.3421 16.7535 20.416Z" fill="#FFCC00"/>
<path d="M57.4736 26.1217L56.3386 27.2566L59.1106 30.014L61.868 32.756L63.2686 33.2134C65.4947 33.9356 66.6743 34.8943 67.4851 36.6044C67.6915 37.0318 67.8979 37.7394 67.9425 38.1822C68.001 38.7866 68.1196 39.0523 68.4584 39.3764L68.8858 39.7745L70.0207 38.6396L71.1557 37.5046L64.8902 31.2391L58.6248 24.9736L57.4736 26.1217Z" fill="#FFCC00"/>
<path d="M43.9099 35.5126L43.394 37.0457L45.3252 37.6794L47.271 38.3131L50.5142 38.387L53.7575 38.4609L54.7454 38.933C55.7772 39.4196 56.6765 40.2158 57.2664 41.1444C57.5905 41.6457 57.7676 41.7488 58.9765 42.1469C59.7134 42.3826 60.3325 42.545 60.3625 42.5011C60.4803 42.3833 61.3797 39.5528 61.3212 39.4935C61.2627 39.435 44.6176 33.9649 44.4998 33.9649C44.4551 33.9649 44.1902 34.6579 43.9099 35.5126Z" fill="#FFCC00"/>
<path d="M3.13073 40.4668C2.52628 40.7763 2.05427 41.1452 1.71547 41.6018C0.712932 42.8992 0.742192 42.2948 0.786852 57.5685L0.830742 71.3384L1.28812 72.1492C1.78939 73.0486 2.83582 73.9333 3.70592 74.1982C4.10401 74.316 10.9886 74.3607 28.7987 74.3607H53.3309L54.0832 73.9772C54.9679 73.5498 55.808 72.6797 56.2061 71.795C56.4717 71.2198 56.4863 70.5715 56.4863 57.3175C56.4863 41.5132 56.5749 42.5743 55.2482 41.2476C53.8922 39.8908 56.3393 40.0094 28.5484 40.0094H4.04472L3.13073 40.4668ZM53.2423 50.6246V57.9958H42.5532H31.8648V50.6246V43.2534H42.5532H53.2416V50.6246H53.2423ZM17.9178 46.6437C18.7879 46.8355 19.6426 47.5138 20.0553 48.3246C20.3795 48.9584 20.4388 49.2833 20.4827 50.9195C20.5859 54.0303 20.0992 55.2985 18.5515 56.0208C17.7992 56.3742 17.7407 56.3742 13.1554 56.3742C10.1185 56.3742 8.33439 56.3157 7.96556 56.2118C7.22867 55.9761 6.41786 55.3124 6.01977 54.5601C5.72486 53.9849 5.6956 53.7347 5.6956 51.5086C5.6956 49.2533 5.72486 49.0315 6.0498 48.3685C6.41863 47.6016 7.09623 47.0118 7.93707 46.7023C8.60004 46.4666 16.9599 46.4081 17.9178 46.6437ZM13.8784 66.2518V67.8734H8.93961H4.00083V66.2518V64.6302H8.93961H13.8784V66.2518ZM27 66.2518V67.8734H22.0604H17.1216V66.2518V64.6302H22.0604H26.9992V66.2518H27ZM40.1208 66.2518V67.8734H35.182H30.2432V66.2518V64.6302H35.182H40.1208V66.2518ZM53.2423 66.2518V67.8734H48.3036H43.3648V66.2518V64.6302H48.3036H53.2423V66.2518Z" fill="#FFCC00"/>
<path d="M33.6343 46.4959V48.1183H42.6279H51.6207V46.4967V44.875H42.6271H33.6335V46.4959H33.6343Z" fill="#FFCC00"/>
<path d="M33.6343 54.7526V56.3742H42.6279H51.6207V54.7526V53.131H42.6271H33.6335V54.7526H33.6343Z" fill="#FFCC00"/>
<path d="M58.1957 47.6316C58.0632 48.4717 58.0925 49.2386 58.2403 49.0615C58.4321 48.8698 58.8594 47.366 58.7562 47.2189C58.5645 46.9094 58.2842 47.1304 58.1957 47.6316Z" fill="#FFCC00"/>
</svg>
