<svg width="165" height="165" viewBox="0 0 165 165" fill="none" xmlns="http://www.w3.org/2000/svg">
<path d="M141.954 18.3851L90.4238 56.6573L99.953 34.0772L141.954 18.3851Z" fill="#E2761B" stroke="#E2761B" stroke-linecap="round" stroke-linejoin="round"/>
<path d="M22.9946 18.3851L74.1104 57.0198L65.0474 34.0772L22.9946 18.3851Z" fill="#E4761B" stroke="#E4761B" stroke-linecap="round" stroke-linejoin="round"/>
<path d="M123.414 107.1L109.689 128.126L139.054 136.205L147.495 107.566L123.414 107.1Z" fill="#E4761B" stroke="#E4761B" stroke-linecap="round" stroke-linejoin="round"/>
<path d="M17.5566 107.566L25.9465 136.205L55.3109 128.126L41.5868 107.1L17.5566 107.566Z" fill="#E4761B" stroke="#E4761B" stroke-linecap="round" stroke-linejoin="round"/>
<path d="M53.6539 71.5725L45.4712 83.9501L74.6284 85.2448L73.5927 53.9124L53.6539 71.5725Z" fill="#E4761B" stroke="#E4761B" stroke-linecap="round" stroke-linejoin="round"/>
<path d="M111.295 71.5725L91.0971 53.5499L90.4238 85.2448L119.529 83.9501L111.295 71.5725Z" fill="#E4761B" stroke="#E4761B" stroke-linecap="round" stroke-linejoin="round"/>
<path d="M55.311 128.126L72.8157 119.581L57.6933 107.773L55.311 128.126Z" fill="#E4761B" stroke="#E4761B" stroke-linecap="round" stroke-linejoin="round"/>
<path d="M92.1328 119.581L109.689 128.126L107.255 107.773L92.1328 119.581Z" fill="#E4761B" stroke="#E4761B" stroke-linecap="round" stroke-linejoin="round"/>
<path d="M109.689 128.126L92.1328 119.581L93.5311 131.026L93.3758 135.843L109.689 128.126Z" fill="#D7C1B3" stroke="#D7C1B3" stroke-linecap="round" stroke-linejoin="round"/>
<path d="M55.3105 128.126L71.6241 135.843L71.5205 131.026L72.8153 119.581L55.3105 128.126Z" fill="#D7C1B3" stroke="#D7C1B3" stroke-linecap="round" stroke-linejoin="round"/>
<path d="M71.8833 100.212L57.2788 95.9134L67.5848 91.2006L71.8833 100.212Z" fill="#233447" stroke="#233447" stroke-linecap="round" stroke-linejoin="round"/>
<path d="M93.0649 100.212L97.3634 91.2006L107.721 95.9134L93.0649 100.212Z" fill="#233447" stroke="#233447" stroke-linecap="round" stroke-linejoin="round"/>
<path d="M55.3105 128.126L57.7964 107.1L41.5864 107.566L55.3105 128.126Z" fill="#CD6116" stroke="#CD6116" stroke-linecap="round" stroke-linejoin="round"/>
<path d="M107.203 107.1L109.689 128.126L123.413 107.566L107.203 107.1Z" fill="#CD6116" stroke="#CD6116" stroke-linecap="round" stroke-linejoin="round"/>
<path d="M119.529 83.9501L90.4233 85.2448L93.1164 100.212L97.4149 91.2006L107.773 95.9134L119.529 83.9501Z" fill="#CD6116" stroke="#CD6116" stroke-linecap="round" stroke-linejoin="round"/>
<path d="M57.2786 95.9134L67.6364 91.2006L71.8831 100.212L74.628 85.2448L45.4707 83.9501L57.2786 95.9134Z" fill="#CD6116" stroke="#CD6116" stroke-linecap="round" stroke-linejoin="round"/>
<path d="M45.4707 83.9501L57.6929 107.773L57.2786 95.9134L45.4707 83.9501Z" fill="#E4751F" stroke="#E4751F" stroke-linecap="round" stroke-linejoin="round"/>
<path d="M107.773 95.9134L107.255 107.773L119.529 83.9501L107.773 95.9134Z" fill="#E4751F" stroke="#E4751F" stroke-linecap="round" stroke-linejoin="round"/>
<path d="M74.6281 85.2448L71.8833 100.212L75.3014 117.872L76.0782 94.6187L74.6281 85.2448Z" fill="#E4751F" stroke="#E4751F" stroke-linecap="round" stroke-linejoin="round"/>
<path d="M90.4237 85.2448L89.0254 94.5669L89.6469 117.872L93.1167 100.212L90.4237 85.2448Z" fill="#E4751F" stroke="#E4751F" stroke-linecap="round" stroke-linejoin="round"/>
<path d="M93.1168 100.212L89.647 117.872L92.1328 119.581L107.255 107.773L107.773 95.9134L93.1168 100.212Z" fill="#F6851B" stroke="#F6851B" stroke-linecap="round" stroke-linejoin="round"/>
<path d="M57.2788 95.9134L57.6931 107.773L72.8155 119.581L75.3014 117.872L71.8833 100.212L57.2788 95.9134Z" fill="#F6851B" stroke="#F6851B" stroke-linecap="round" stroke-linejoin="round"/>
<path d="M93.3755 135.843L93.5309 131.026L92.2362 129.887H72.7117L71.5205 131.026L71.6241 135.843L55.3105 128.126L61.0073 132.787L72.5563 140.814H92.3915L103.992 132.787L109.689 128.126L93.3755 135.843Z" fill="#C0AD9E" stroke="#C0AD9E" stroke-linecap="round" stroke-linejoin="round"/>
<path d="M92.1326 119.581L89.6467 117.872H75.3011L72.8152 119.581L71.5205 131.026L72.7117 129.887H92.2361L93.5309 131.026L92.1326 119.581Z" fill="#161616" stroke="#161616" stroke-linecap="round" stroke-linejoin="round"/>
<path d="M144.129 59.1431L148.531 38.0132L141.954 18.3851L92.1328 55.3625L111.295 71.5725L138.38 79.4962L144.388 72.5047L141.799 70.6403L145.942 66.8597L142.731 64.3738L146.874 61.2147L144.129 59.1431Z" fill="#763D16" stroke="#763D16" stroke-linecap="round" stroke-linejoin="round"/>
<path d="M16.4688 38.0132L20.8708 59.1431L18.0742 61.2147L22.2173 64.3738L19.0582 66.8597L23.2013 70.6403L20.6119 72.5047L26.5676 79.4962L53.6533 71.5725L72.8153 55.3625L22.9942 18.3851L16.4688 38.0132Z" fill="#763D16" stroke="#763D16" stroke-linecap="round" stroke-linejoin="round"/>
<path d="M138.381 79.4962L111.295 71.5725L119.529 83.9501L107.255 107.773L123.414 107.566H147.495L138.381 79.4962Z" fill="#F6851B" stroke="#F6851B" stroke-linecap="round" stroke-linejoin="round"/>
<path d="M53.6536 71.5725L26.5679 79.4962L17.5566 107.566H41.5868L57.6932 107.773L45.471 83.9501L53.6536 71.5725Z" fill="#F6851B" stroke="#F6851B" stroke-linecap="round" stroke-linejoin="round"/>
<path d="M90.4235 85.2448L92.1326 55.3625L100.005 34.0772H65.0469L72.8152 55.3625L74.6279 85.2448L75.2493 94.6704L75.3011 117.872H89.6467L89.7503 94.6704L90.4235 85.2448Z" fill="#F6851B" stroke="#F6851B" stroke-linecap="round" stroke-linejoin="round"/>
</svg>
