<svg width="44" height="44" viewBox="0 0 44 44" fill="none" xmlns="http://www.w3.org/2000/svg">
<rect x="1.6098" y="2" width="40" height="40" rx="5" fill="#FFCC00"/>
<line x1="14.466" y1="0.722308" x2="0.691571" y2="13.9106" stroke="black" stroke-width="2"/>
<line x1="42.8542" y1="29.7223" x2="29.0798" y2="42.9106" stroke="black" stroke-width="2"/>
<g clip-path="url(#clip0_113_280)">
<path d="M31.4302 17.408C31.446 17.6301 31.446 17.8522 31.446 18.0743C31.446 24.8477 26.2906 32.6523 16.868 32.6523C13.9651 32.6523 11.2684 31.8115 9 30.3522C9.41245 30.3998 9.80898 30.4156 10.2373 30.4156C12.6326 30.4156 14.8375 29.6067 16.5983 28.2266C14.3458 28.179 12.4581 26.7037 11.8077 24.6733C12.125 24.7208 12.4422 24.7526 12.7754 24.7526C13.2354 24.7526 13.6955 24.6891 14.1237 24.5781C11.776 24.1022 10.0152 22.04 10.0152 19.5495V19.4861C10.6973 19.8668 11.4905 20.1048 12.3312 20.1364C10.9511 19.2164 10.0469 17.646 10.0469 15.8693C10.0469 14.9176 10.3007 14.0451 10.7449 13.2837C13.2671 16.3928 17.0583 18.4232 21.3096 18.6453C21.2303 18.2646 21.1827 17.8681 21.1827 17.4715C21.1827 14.6479 23.4669 12.3478 26.3064 12.3478C27.7816 12.3478 29.1141 12.9664 30.05 13.9658C31.208 13.7437 32.3184 13.3154 33.302 12.7285C32.9212 13.9182 32.1122 14.9176 31.0494 15.5521C32.0805 15.4411 33.0799 15.1555 33.9999 14.759C33.302 15.7741 32.4295 16.6783 31.4302 17.408Z" fill="black"/>
</g>
<defs>
<clipPath id="clip0_113_280">
<rect x="8.60992" y="10" width="25" height="25" rx="5" fill="white"/>
</clipPath>
</defs>
</svg>
