<svg width="44" height="44" viewBox="0 0 44 44" fill="none" xmlns="http://www.w3.org/2000/svg">
<rect x="1.60986" y="2" width="40" height="40" rx="5" fill="#FFCC00"/>
<line x1="14.466" y1="0.722308" x2="0.691571" y2="13.9106" stroke="black" stroke-width="2"/>
<line x1="42.8542" y1="29.7223" x2="29.0798" y2="42.9106" stroke="black" stroke-width="2"/>
<path d="M16.1965 25.9826L15.8088 31.2176C16.3635 31.2176 16.6037 30.9888 16.8918 30.7141L19.4924 28.3282L24.881 32.1166C25.8693 32.6454 26.5656 32.3669 26.8322 31.2438L30.3693 15.3326L30.3703 15.3316C30.6838 13.9291 29.842 13.3807 28.8791 13.7248L8.08806 21.3663C6.66912 21.8951 6.6906 22.6544 7.84685 22.9985L13.1623 24.5857L25.509 17.1691C26.09 16.7998 26.6183 17.0041 26.1838 17.3735L16.1965 25.9826Z" fill="black"/>
</svg>
