<svg width="91" height="79" viewBox="0 0 91 79" fill="none" xmlns="http://www.w3.org/2000/svg">
<g clip-path="url(#clip0_902_818)">
<path fill-rule="evenodd" clip-rule="evenodd" d="M16.6622 0.387941L0.0696803 35.1697C0.00654109 35.299 -0.0134673 35.4452 0.0125811 35.5867C0.0386295 35.7282 0.109368 35.8577 0.214452 35.9563L45.0268 78.81C45.1541 78.9318 45.3236 78.9999 45.5 78.9999C45.6763 78.9999 45.8459 78.9318 45.9732 78.81L90.7855 35.9589C90.8906 35.8604 90.9613 35.7309 90.9874 35.5894C91.0134 35.4478 90.9934 35.3017 90.9303 35.1723L74.3378 0.390616C74.2842 0.273804 74.1981 0.17485 74.0897 0.10558C73.9813 0.036309 73.8552 -0.00034758 73.7265 -9.25755e-06H17.2788C17.1495 -0.001615 17.0224 0.0341586 16.913 0.102996C16.8036 0.171834 16.7165 0.270794 16.6622 0.387941Z" fill="black"/>
<path fill-rule="evenodd" clip-rule="evenodd" d="M51.2572 38.7415C50.9355 38.7656 49.2733 38.8646 45.5655 38.8646C42.6165 38.8646 40.5226 38.7763 39.788 38.7415C28.3913 38.2412 19.8846 36.2613 19.8846 33.8908C19.8846 31.5203 28.3913 29.5431 39.788 29.0347V36.7696C40.5333 36.8232 42.6674 36.9489 45.6165 36.9489C49.1553 36.9489 50.9274 36.8017 51.2465 36.7723V29.0401C62.6191 29.5457 71.1071 31.5256 71.1071 33.8908C71.1071 36.2559 62.6218 38.2358 51.2465 38.7388L51.2572 38.7415ZM51.2572 28.2401V21.3185H67.1285V10.7636H23.9167V21.3185H39.7854V28.2374C26.8872 28.8287 17.1875 31.3785 17.1875 34.4339C17.1875 37.4894 26.8872 40.0364 39.7854 40.6304V62.8105H51.2545V40.6224C64.1232 40.0311 73.8068 37.484 73.8068 34.4312C73.8068 31.3785 64.1312 28.8314 51.2545 28.2374L51.2572 28.2401Z" fill="#FFCC00"/>
</g>
<defs>
<clipPath id="clip0_902_818">
<rect width="91" height="79" fill="white"/>
</clipPath>
</defs>
</svg>
